<?xml version="1.0" encoding="iso-8859-1"?>
<!-- Uploaded to: SVG Repo, www.svgrepo.com, Generator: SVG Repo Mixer Tools -->
<svg height="800px" width="800px" version="1.1" id="Capa_1" xmlns="http://www.w3.org/2000/svg" xmlns:xlink="http://www.w3.org/1999/xlink" 
	 viewBox="0 0 378.977 378.977" xml:space="preserve">
<g>
	<path style="fill:#FFFFFF;" d="M360.982,103.401c-38.205,10.449-84.119,17.092-133.674,19.36v10.404
		c55.275-2.02,99.762-8.541,136.141-17.781C363.004,111.518,362.22,107.497,360.982,103.401z"/>
	<path style="fill:#FFFFFF;" d="M140.991,199.258c17.859,19.929,27.518,43.583,27.61,68.467c0.561,4.916,5.203,7.301,9.97,8.45
		C178.007,247.562,164.798,220.647,140.991,199.258z"/>
	<path style="fill:#FFFFFF;" d="M27.99,113.4c35.621,9.742,77.949,16.172,123.678,18.837v-9.476
		c-49.557-2.269-95.473-8.913-133.678-19.361c-5.791,19.068-1.791,36.36,0.711,44.127c2.542,0.065,5.073,0.18,7.593,0.339
		C24.665,138.939,23.982,126.596,27.99,113.4z"/>
	<path style="fill:none;" d="M139.845,231.516c2.371,4.963,7.062,5.446,7.578,5.532c-2.078-5.084-4.648-10.008-7.676-14.735
		C139.55,222.725,137.525,226.661,139.845,231.516z"/>
	<path style="fill:none;" d="M94.256,186.275c5.328,2.696,8.459,0.713,8.73,0.61c-4.41-2.767-9.047-5.336-13.889-7.685
		C89.154,179.486,88.382,183.303,94.256,186.275z"/>
	<path style="fill:none;" d="M30.398,167.089c3.166,0.306,6.133-0.856,8.248-2.918c-5.156-0.708-10.41-1.198-15.746-1.467
		C24.582,165.104,27.257,166.785,30.398,167.089z"/>
	<path style="fill:none;" d="M63.404,173.216c5.176,1.794,8.312-0.998,8.508-1.12c-4.879-1.694-9.908-3.182-15.068-4.451
		C56.939,167.851,57.423,171.144,63.404,173.216z"/>
	<path style="fill:none;" d="M231.552,237.048c0.516-0.086,5.51-1.094,7.578-5.53c2.064-4.428,0.295-8.793,0.098-9.205
		C236.201,227.04,233.631,231.963,231.552,237.048z"/>
	<path style="fill:none;" d="M117.654,197.527c-0.031,0.358-1.383,4.232,3.113,8.382c4.49,4.146,8.184,2.891,8.574,2.841
		C125.779,204.811,121.871,201.062,117.654,197.527z"/>
	<path style="fill:none;" d="M249.634,208.75c0.391,0.05,3.469,1.326,8.574-2.84c3.668-2.992,3.147-8.025,3.113-8.383
		C257.105,201.062,253.197,204.811,249.634,208.75z"/>
	<path style="fill:none;" d="M348.58,167.089c3.137-0.305,5.81-1.987,7.494-4.385c-5.336,0.269-10.596,0.76-15.754,1.468
		C342.435,166.238,345.408,167.397,348.58,167.089z"/>
	<path style="fill:none;" d="M315.574,173.216c4.949-1.426,6.463-5.365,6.559-5.57c-5.16,1.27-10.189,2.757-15.068,4.451
		C307.259,172.218,310.898,174.564,315.574,173.216z"/>
	<path style="fill:none;" d="M284.72,186.275c4.83-2.748,5.102-6.789,5.158-7.075c-4.84,2.348-9.475,4.915-13.883,7.682
		C278.756,187.931,281.961,187.846,284.72,186.275z"/>
	<path style="fill:#BA82AA;" d="M166.668,127.56l7.82-4.515l-0.773-0.446c-0.021-0.013-0.043-0.025-0.064-0.038l-6.982-4.03V127.56z
		"/>
	<path style="fill:#BA82AA;" d="M212.308,118.53l-6.979,4.029c-0.023,0.013-0.045,0.027-0.068,0.04l-0.773,0.446l7.82,4.515V118.53z
		"/>
	<path style="fill:none;" d="M94.256,186.275c5.328,2.696,8.459,0.713,8.73,0.61c-4.41-2.767-9.047-5.336-13.889-7.685
		C89.154,179.486,88.382,183.303,94.256,186.275z"/>
	<path style="fill:none;" d="M117.654,197.527c-0.031,0.358-1.383,4.232,3.113,8.382c4.49,4.146,8.184,2.891,8.574,2.841
		C125.779,204.811,121.871,201.062,117.654,197.527z"/>
	<path style="fill:none;" d="M63.404,173.216c5.176,1.794,8.312-0.998,8.508-1.12c-4.879-1.694-9.908-3.182-15.068-4.451
		C56.939,167.851,57.423,171.144,63.404,173.216z"/>
	<path style="fill:none;" d="M139.845,231.516c2.371,4.963,7.062,5.446,7.578,5.532c-2.078-5.084-4.648-10.008-7.676-14.735
		C139.55,222.725,137.525,226.661,139.845,231.516z"/>
	<path style="fill:none;" d="M30.398,167.089c3.166,0.306,6.133-0.856,8.248-2.918c-5.156-0.708-10.41-1.198-15.746-1.467
		C24.582,165.104,27.257,166.785,30.398,167.089z"/>
	<path style="fill:none;" d="M212.308,118.53l-6.979,4.029c-0.023,0.013-0.045,0.027-0.068,0.04l-0.773,0.446l7.82,4.515V118.53z"/>
	<path style="fill:none;" d="M173.715,122.599c-0.021-0.013-0.043-0.025-0.064-0.038l-6.982-4.03v9.029l7.82-4.515L173.715,122.599z
		"/>
	<path style="fill:none;" d="M249.634,208.75c0.391,0.05,3.469,1.326,8.574-2.84c3.668-2.992,3.147-8.025,3.113-8.383
		C257.105,201.062,253.197,204.811,249.634,208.75z"/>
	<path style="fill:none;" d="M348.58,167.089c3.137-0.305,5.81-1.987,7.494-4.385c-5.336,0.269-10.596,0.76-15.754,1.468
		C342.435,166.238,345.408,167.397,348.58,167.089z"/>
	<path style="fill:none;" d="M284.72,186.275c4.83-2.748,5.102-6.789,5.158-7.075c-4.84,2.348-9.475,4.915-13.883,7.682
		C278.756,187.931,281.961,187.846,284.72,186.275z"/>
	<path style="fill:none;" d="M315.574,173.216c4.949-1.426,6.463-5.365,6.559-5.57c-5.16,1.27-10.189,2.757-15.068,4.451
		C307.259,172.218,310.898,174.564,315.574,173.216z"/>
	<path style="fill:none;" d="M231.552,237.048c0.516-0.086,5.51-1.094,7.578-5.53c2.064-4.428,0.295-8.793,0.098-9.205
		C236.201,227.04,233.631,231.963,231.552,237.048z"/>
	<path style="fill:#FFA6BB;" d="M178.571,276.174c5.369,1.294,10.896,1.018,10.919,1.018c0.043,0,20.178,0.612,20.887-9.466
		c0.121-32.468,16.51-62.851,46.178-85.584c27.938-21.408,64.588-33.609,103.699-34.614c1.943-6.111,4.809-18.108,3.195-32.143
		c-35.525,9.124-84.225,16.077-136.141,17.785v7.381c0,2.68-1.502,5.036-3.75,6.495c-2.67,1.734-6.34,0.67-7.5,0l-26.57-15.34
		l-26.57,15.34c-1.16,0.67-4.289,2.069-7.5,0c-2.252-1.452-3.75-3.815-3.75-6.495v-8.314c-45.729-2.665-88.057-9.095-123.678-18.837
		c-4.008,13.196-3.325,25.539-1.696,34.466c36.252,2.289,70.003,14.255,96.128,34.275c6.931,5.311,13.127,11.043,18.57,17.118
		C164.798,220.648,178.007,247.562,178.571,276.174z"/>
	<path style="fill:#7F3960;" d="M372.599,91.402c-1.467-3.533-5.357-5.397-9.031-4.321c-38.205,11.176-85.178,18.282-136.26,20.663
		v-2.205c0-2.68-1.43-5.155-3.75-6.495c-2.32-1.34-5.18-1.34-7.5,0l-16.492,9.521c-6.686,0.082-13.469,0.082-20.156,0l-16.492-9.521
		c-2.32-1.34-5.18-1.34-7.5,0c-2.32,1.34-3.75,3.815-3.75,6.495v2.205c-51.082-2.381-98.057-9.488-136.26-20.663
		c-3.668-1.073-7.563,0.788-9.031,4.321c-12.641,30.427-3.043,58.456-0.361,65.172c-0.098,12.987,9.783,23.99,22.936,25.445
		c8.035,0.889,12.469-1.469,16.531-4.188c3.252,4.612,7.969,8.028,13.539,9.73c2.451,0.749,4.957,1.12,7.449,1.12
		c3.186,0,6.348-0.614,9.346-1.813c2.184,5.32,6.188,9.517,11.18,12.533c6.973,4.213,14.693,3.09,15.912,2.912
		c0.826,5.451,3.391,10.459,7.414,14.363c3.785,3.672,8.506,6.02,13.607,6.838c-0.672,5.045,0.188,10.169,2.545,14.802
		c3.074,6.046,8.32,10.532,14.77,12.631c2.588,0.842,5.244,1.26,7.887,1.26c0.955,0,1.908-0.06,2.857-0.169
		c1.062,5.234,1.613,10.594,1.613,16.048c0,0.096,0.002,0.191,0.006,0.287c0.318,8.322,8.027,23.822,34.766,23.822
		c0.367,0,1.861,0.008,2.23,0c36.73-0.767,34.771-24.013,34.771-24.108c0-5.455,0.553-10.814,1.615-16.048
		c0.947,0.109,1.9,0.169,2.855,0.169c2.645,0,5.301-0.418,7.887-1.26c6.451-2.1,11.695-6.585,14.77-12.63
		c2.357-4.634,3.217-9.759,2.547-14.804c5.1-0.818,9.822-3.166,13.605-6.837c4.029-3.909,6.594-8.925,7.418-14.383
		c1.211,0.176,2.434,0.274,3.664,0.274c4.152,0,8.361-1.02,12.244-3.167c5.103-2.823,8.996-7.213,11.18-12.534
		c3,1.199,6.16,1.813,9.348,1.813c2.49,0,4.996-0.371,7.447-1.12c5.564-1.7,10.277-5.11,13.529-9.714
		c4.06,2.719,10.113,4.73,16.541,4.171c13.182-1.146,23.033-12.456,22.936-25.442C375.642,149.864,385.242,121.832,372.599,91.402z
		 M205.261,122.599c0.023-0.013,0.045-0.027,0.068-0.04l6.979-4.029v9.029l-7.82-4.515L205.261,122.599z M166.668,118.53l6.982,4.03
		c0.021,0.013,0.043,0.025,0.064,0.038l0.773,0.446l-7.82,4.515V118.53z M30.398,167.089c-3.141-0.305-5.816-1.985-7.498-4.385
		c5.336,0.269,10.59,0.759,15.746,1.467C36.531,166.233,33.564,167.395,30.398,167.089z M63.404,173.216
		c-5.98-2.073-6.465-5.365-6.561-5.57c5.16,1.269,10.189,2.756,15.068,4.451C71.716,172.218,68.58,175.01,63.404,173.216z
		 M94.256,186.275c-5.873-2.972-5.102-6.789-5.158-7.075c4.842,2.349,9.479,4.918,13.889,7.685
		C102.715,186.988,99.584,188.971,94.256,186.275z M120.767,205.91c-4.496-4.15-3.145-8.024-3.113-8.382
		c4.217,3.535,8.125,7.283,11.688,11.223C128.951,208.801,125.257,210.056,120.767,205.91z M139.845,231.516
		c-2.32-4.855-0.295-8.791-0.098-9.204c3.027,4.727,5.598,9.651,7.676,14.735C146.908,236.962,142.216,236.479,139.845,231.516z
		 M168.601,267.725c-0.093-24.883-9.751-48.537-27.609-68.466c-5.443-6.075-11.64-11.807-18.57-17.118
		c-26.125-20.02-59.876-31.986-96.128-34.275c-2.52-0.159-5.051-0.274-7.593-0.339c-2.502-7.767-6.502-25.059-0.711-44.127
		c38.205,10.448,84.121,17.092,133.678,19.361v9.476v8.314c0,2.68,1.498,5.044,3.75,6.495c3.211,2.069,6.34,0.67,7.5,0l26.57-15.34
		l26.57,15.34c1.16,0.67,4.83,1.734,7.5,0c2.248-1.459,3.75-3.815,3.75-6.495v-7.381v-10.408
		c49.555-2.269,95.469-8.912,133.674-19.36c1.238,4.096,2.022,8.117,2.467,11.983c1.613,14.035-1.252,26.032-3.195,32.143
		c-39.111,1.005-75.762,13.206-103.699,34.614c-29.668,22.733-46.057,53.116-46.178,85.584c-0.709,10.078-20.844,9.466-20.887,9.466
		c-0.023,0-5.55,0.276-10.919-1.018C173.804,275.026,169.162,272.641,168.601,267.725z M239.131,231.518
		c-2.068,4.436-7.062,5.444-7.578,5.53c2.078-5.084,4.648-10.008,7.676-14.735C239.425,222.725,241.195,227.09,239.131,231.518z
		 M258.209,205.911c-5.105,4.165-8.184,2.89-8.574,2.84c3.562-3.94,7.471-7.689,11.688-11.223
		C261.355,197.885,261.877,202.918,258.209,205.911z M284.72,186.275c-2.76,1.57-5.965,1.656-8.725,0.607
		c4.408-2.766,9.043-5.334,13.883-7.682C289.822,179.487,289.55,183.528,284.72,186.275z M315.574,173.216
		c-4.676,1.348-8.314-0.998-8.51-1.119c4.879-1.694,9.908-3.182,15.068-4.451C322.037,167.851,320.523,171.79,315.574,173.216z
		 M348.58,167.089c-3.172,0.308-6.145-0.852-8.26-2.916c5.158-0.709,10.418-1.199,15.754-1.468
		C354.39,165.103,351.716,166.785,348.58,167.089z"/>
</g>
</svg>