<?xml version="1.0" encoding="iso-8859-1"?>
<!-- Uploaded to: SVG Repo, www.svgrepo.com, Generator: SVG Repo Mixer Tools -->
<svg height="800px" width="800px" version="1.1" id="Layer_1" xmlns="http://www.w3.org/2000/svg" xmlns:xlink="http://www.w3.org/1999/xlink" 
	 viewBox="0 0 512.001 512.001" xml:space="preserve">
<path style="fill:#FFE98F;" d="M452.459,36.18C430.062,12.938,400.075,0.09,368.025,0c-0.111,0-0.22,0-0.331,0
	c-34.682,0-70.557,15.138-96.026,40.536c-5.958,5.942-11.195,12.29-15.669,18.949c-4.474-6.659-9.711-13.007-15.669-18.949
	C214.863,15.137,178.991,0,144.306,0c-0.108,0-0.222,0-0.33,0c-32.051,0.09-62.038,12.938-84.435,36.18
	c-22.558,23.408-34.854,55.514-33.739,88.087c1.631,47.601,50.855,141.51,70.128,176.561
	c-19.173,20.627-57.777,68.355-57.777,118.268v11.926l135.396,62.761C199.75,505.928,227.876,512,256.001,512
	c28.125,0,56.252-6.072,82.451-18.217l135.396-62.761v-11.926c0-49.913-38.604-97.641-57.777-118.268
	c19.273-35.052,68.497-128.96,70.128-176.561C487.313,91.694,475.017,59.588,452.459,36.18z M255.999,118.606L255.999,118.606
	L255.999,118.606L255.999,118.606z"/>
<path style="fill:#FFC170;" d="M452.459,36.18C430.062,12.938,400.075,0.09,368.025,0c-0.111,0-0.22,0-0.331,0
	c-34.682,0-70.557,15.138-96.026,40.536c-5.958,5.942-11.195,12.29-15.669,18.949v59.121l0,0v393.395
	c28.126,0,56.252-6.072,82.451-18.217l135.396-62.761v-11.926c0-49.913-38.604-97.642-57.777-118.268
	c19.273-35.052,68.497-128.96,70.128-176.561C487.313,91.694,475.017,59.588,452.459,36.18z"/>
<path style="fill:#A2001D;" d="M312.017,88.176c-16.576,0-40.095,14.731-56.018,26.31c-15.923-11.577-39.442-26.31-56.018-26.31
	c-27.456,0-49.794,22.337-49.794,49.794s22.337,49.794,49.794,49.794c16.576,0,40.095-14.731,56.018-26.31
	c15.923,11.577,39.441,26.31,56.018,26.31c27.456,0,49.794-22.337,49.794-49.794S339.473,88.176,312.017,88.176z M312.162,150.418
	c-4.006-0.432-13.58-5.477-24.287-12.448c10.707-6.97,20.281-12.016,24.287-12.448c6.798,0.077,12.305,5.632,12.305,12.448
	S318.96,150.341,312.162,150.418z M187.533,137.969c0-6.817,5.507-12.371,12.305-12.448c4.006,0.432,13.58,5.477,24.287,12.448
	c-10.707,6.97-20.281,12.016-24.287,12.448C193.04,150.341,187.533,144.786,187.533,137.969z"/>
<g>
	<circle style="fill:#6C0014;" cx="256.001" cy="243.777" r="18.673"/>
	<circle style="fill:#6C0014;" cx="256.001" cy="318.467" r="18.673"/>
	<circle style="fill:#6C0014;" cx="256.001" cy="393.158" r="18.673"/>
	<path style="fill:#6C0014;" d="M312.017,88.176c-16.576,0-40.095,14.731-56.018,26.31v46.968
		c15.923,11.577,39.441,26.31,56.018,26.31c27.456,0,49.794-22.337,49.794-49.794S339.473,88.176,312.017,88.176z M312.162,150.418
		c-4.006-0.432-13.58-5.477-24.287-12.448c10.707-6.97,20.281-12.016,24.287-12.448c6.798,0.077,12.305,5.632,12.305,12.448
		S318.96,150.341,312.162,150.418z"/>
</g>
</svg>